<svg width="128" height="128" viewBox="0 0 128 128" fill="none" xmlns="http://www.w3.org/2000/svg">
<g id="Frame">
<g id="Group">
<path id="Vector" fill-rule="evenodd" clip-rule="evenodd" d="M20.2402 27.1066C31.8722 14.2746 46.1868 11.5306 62.6668 24.3573C62.6668 24.3573 88.5762 6.48525 105.541 24.3573C116.528 35.9333 111.248 48.0293 106.163 59.6693C103.4 65.9973 100.696 72.1919 100.696 78.0959C99.4082 80.3519 88.2908 81.5519 74.9282 81.9173L41.1948 94.0612L40.1282 89.4479L60.7895 82.0079C55.9691 81.9508 51.1503 81.7961 46.3362 81.5439L38.9228 84.2133L38.8428 83.8666C38.625 82.9315 38.6637 81.9549 38.9548 81.0399C30.8828 80.3573 25.1682 79.3493 24.6002 78.0959C24.6002 71.2586 22.3202 64.1439 20.1068 57.2426C16.4588 45.8746 13.0002 35.0906 20.2402 27.1066ZM59.3922 28.5653C59.5397 28.679 59.6908 28.7857 59.8455 28.8853L77.0722 41.4506C77.3547 41.663 77.6767 41.8171 78.0193 41.9039C78.362 41.9907 78.7185 42.0086 79.0681 41.9564C79.4177 41.9042 79.7535 41.783 80.0558 41.5999C80.3582 41.4168 80.6211 41.1754 80.8293 40.8898C81.0376 40.6041 81.1869 40.28 81.2687 39.9361C81.3505 39.5922 81.3631 39.2355 81.3058 38.8867C81.2485 38.5378 81.1224 38.2039 80.9349 37.9043C80.7474 37.6046 80.5022 37.3453 80.2135 37.1413L67.3255 27.7386C67.8988 27.4026 68.6082 27.0053 69.4322 26.5786C71.8935 25.3039 75.2828 23.8053 79.0855 22.8186C86.7282 20.8293 95.0748 21.0773 101.672 28.0293C105.112 31.6533 106.376 35.0586 106.622 38.3333C106.88 41.7893 106.035 45.5359 104.469 49.8106C103.696 51.9253 102.784 54.0693 101.808 56.3119L101.291 57.4986L101.288 57.5066C100.483 59.3466 99.6482 61.2612 98.8882 63.1519C97.4482 66.7306 96.0962 70.6586 95.5815 74.7253L95.3468 74.7786C93.4402 75.2186 90.6748 75.6079 87.2055 75.9173C80.3122 76.5306 71.2855 76.7733 62.2108 76.6906C53.1388 76.6106 44.1708 76.2026 37.4055 75.5439C34.1842 75.2346 31.5922 74.8773 29.7655 74.5039C29.3948 70.4773 28.4668 66.5359 27.4135 62.8372C26.7282 60.4266 25.9628 58.0373 25.2322 55.7653L25.1975 55.6506C24.4722 53.3893 23.7842 51.2506 23.1842 49.1573C20.6402 40.2746 20.4855 34.7759 24.1922 30.6879C29.4268 24.9119 34.7762 21.9386 40.1495 21.4186C45.4988 20.9013 51.8748 22.7146 59.3922 28.5653Z" fill="#2C7575"/>
<path id="Vector_2" d="M88.2537 87.7867L43.4671 103.909L42.4004 99.296L89.2937 82.416C89.3168 82.8907 89.2724 83.3742 89.1604 83.8667L88.2537 87.7867ZM45.3684 108.893L86.8271 93.968L85.5711 99.4187L50.7711 111.947C49.7125 111.823 48.6894 111.49 47.7616 110.965C46.8338 110.441 46.0202 109.736 45.3684 108.893ZM84.1444 105.6L66.3711 112H76.3017C78.111 112.001 79.867 111.388 81.2832 110.262C82.6993 109.136 83.692 107.563 84.0991 105.8L84.1444 105.6Z" fill="#2C7575"/>
</g>
</g>
</svg>
