<svg width="128" height="128" viewBox="0 0 128 128" fill="none" xmlns="http://www.w3.org/2000/svg">
<g id="Frame">
<g id="Group">
<path id="Vector" d="M48 31.9999C50.6667 34.6666 56.016 34.1973 64 27.6053M64 27.6053C62.8196 26.6381 61.5947 25.5253 60.3254 24.2666C48.0267 12.0853 31.28 14.4693 23.4347 24.2666C18.016 31.0399 4.14938 47.8933 38.0907 107.947C39.4987 110.432 42.2987 112 45.312 112C50.1227 112 53.8827 108.16 54.0374 103.68C54.3734 94.1759 56.2134 83.2159 64 83.2159C71.7867 83.2159 73.632 94.1759 73.9627 103.68C74.1174 108.16 77.8774 112 82.688 112C85.7014 112 88.5014 110.432 89.9094 107.947C123.856 47.8879 109.984 31.0399 104.565 24.2666C96.72 14.4693 79.9734 12.0853 67.6747 24.2666C66.4054 25.5217 65.1805 26.6346 64 27.6053Z" stroke="#2C7575" stroke-width="8" stroke-linecap="round" stroke-linejoin="round"/>
<path id="Vector_2" d="M53.3335 58.6667H21.3335M106.667 58.6667H74.6668M55.3975 50.064C52.6455 52.816 52.6455 64.5173 55.3975 67.2693C58.1495 70.0213 69.8508 70.0213 72.6028 67.2693C75.3548 64.5173 75.3548 52.816 72.6028 50.064C69.8508 47.312 58.1495 47.312 55.3975 50.064Z" stroke="#2C7575" stroke-width="8" stroke-linecap="round" stroke-linejoin="round"/>
</g>
</g>
</svg>
