<svg width="26" height="21" viewBox="0 0 26 21" fill="none" xmlns="http://www.w3.org/2000/svg">
<path id="Vector" d="M12.9989 2.15625C10.0558 2.15625 7.63637 3.48594 5.78116 5.19746C4.04332 6.80566 2.84262 8.71484 2.22873 10.0625C2.84262 11.4102 4.04332 13.3193 5.77665 14.9275C7.63637 16.6391 10.0558 17.9688 12.9989 17.9688C15.9419 17.9688 18.3614 16.6391 20.2166 14.9275C21.9544 13.3193 23.1551 11.4102 23.769 10.0625C23.1551 8.71484 21.9544 6.80566 20.2211 5.19746C18.3614 3.48594 15.9419 2.15625 12.9989 2.15625ZM4.30512 3.6207C6.43116 1.65312 9.35165 0 12.9989 0C16.6461 0 19.5666 1.65312 21.6926 3.6207C23.8051 5.5748 25.218 7.90625 25.8905 9.50996C26.0395 9.86484 26.0395 10.2602 25.8905 10.615C25.218 12.2188 23.8051 14.5547 21.6926 16.5043C19.5666 18.4719 16.6461 20.125 12.9989 20.125C9.35165 20.125 6.43116 18.4719 4.30512 16.5043C2.19262 14.5547 0.779774 12.2188 0.111719 10.615C-0.0372396 10.2602 -0.0372396 9.86484 0.111719 9.50996C0.779774 7.90625 2.19262 5.57031 4.30512 3.6207ZM12.9989 13.6562C14.994 13.6562 16.61 12.048 16.61 10.0625C16.61 8.07695 14.994 6.46875 12.9989 6.46875C12.9673 6.46875 12.9402 6.46875 12.9086 6.46875C12.9673 6.69785 12.9989 6.94043 12.9989 7.1875C12.9989 8.77324 11.7034 10.0625 10.11 10.0625C9.86172 10.0625 9.61797 10.0311 9.38776 9.97266C9.38776 10.0041 9.38776 10.0311 9.38776 10.0625C9.38776 12.048 11.0037 13.6562 12.9989 13.6562ZM12.9989 4.3125C14.5312 4.3125 16.0008 4.9183 17.0844 5.99664C18.1679 7.07497 18.7767 8.53751 18.7767 10.0625C18.7767 11.5875 18.1679 13.05 17.0844 14.1284C16.0008 15.2067 14.5312 15.8125 12.9989 15.8125C11.4665 15.8125 9.99691 15.2067 8.91337 14.1284C7.82982 13.05 7.2211 11.5875 7.2211 10.0625C7.2211 8.53751 7.82982 7.07497 8.91337 5.99664C9.99691 4.9183 11.4665 4.3125 12.9989 4.3125Z" fill="#2C7575"/>
</svg>
