<svg width="128" height="128" viewBox="0 0 128 128" fill="none" xmlns="http://www.w3.org/2000/svg">
<g id="Frame">
<path id="Vector" fill-rule="evenodd" clip-rule="evenodd" d="M55.8933 24.7493C44.3253 18.2426 34.08 21.3013 25.56 31.6426C17.3413 41.6213 22.9467 59.6106 26.9733 72.544C27.9333 75.6266 28.8054 78.424 29.3787 80.7546C32.352 92.8613 35.2 100.408 41.688 105.869C44.9014 108.573 48.5467 103.925 52.392 99.024C55.7253 94.7733 59.208 90.3306 62.6934 90.32C66.12 90.3093 69.5493 94.7466 72.8373 98.9973C76.632 103.904 80.2374 108.571 83.432 105.869C88.392 101.683 90.64 98.6106 93.3654 89.9866C96.7719 89.1004 99.9063 87.3854 102.489 84.9943C105.072 82.6033 107.024 79.6104 108.17 76.2824C109.316 72.9543 109.622 69.3945 109.059 65.9199C108.496 62.4453 107.082 59.1639 104.944 56.368C107.627 47.248 107.947 37.9573 100.216 28.9946C89.176 16.1946 73.8774 22.808 66.7547 27.04L76.4027 35.3066C76.6688 35.5346 76.8875 35.8128 77.0461 36.1252C77.2048 36.4377 77.3003 36.7784 77.3273 37.1278C77.3543 37.4772 77.3122 37.8284 77.2034 38.1616C77.0946 38.4947 76.9213 38.8032 76.6934 39.0693C76.4654 39.3354 76.1872 39.5541 75.8747 39.7127C75.5623 39.8714 75.2216 39.9669 74.8722 39.9939C74.5228 40.0209 74.1715 39.9788 73.8384 39.87C73.5053 39.7613 73.1968 39.5879 72.9307 39.36L55.8933 24.7493ZM104 69.3333C104 73.5768 102.314 77.6464 99.3137 80.647C96.3131 83.6476 92.2435 85.3333 88 85.3333C83.7566 85.3333 79.6869 83.6476 76.6863 80.647C73.6857 77.6464 72 73.5768 72 69.3333C72 65.0898 73.6857 61.0202 76.6863 58.0196C79.6869 55.019 83.7566 53.3333 88 53.3333C92.2435 53.3333 96.3131 55.019 99.3137 58.0196C102.314 61.0202 104 65.0898 104 69.3333ZM85.3334 61.3333C85.3334 60.6261 85.6143 59.9478 86.1144 59.4477C86.6145 58.9476 87.2928 58.6666 88 58.6666C88.7073 58.6666 89.3855 58.9476 89.8856 59.4477C90.3857 59.9478 90.6667 60.6261 90.6667 61.3333V66.6666H96C96.7073 66.6666 97.3855 66.9476 97.8856 67.4477C98.3857 67.9478 98.6667 68.6261 98.6667 69.3333C98.6667 70.0405 98.3857 70.7188 97.8856 71.2189C97.3855 71.719 96.7073 72 96 72H90.6667V77.3333C90.6667 78.0405 90.3857 78.7188 89.8856 79.2189C89.3855 79.719 88.7073 80 88 80C87.2928 80 86.6145 79.719 86.1144 79.2189C85.6143 78.7188 85.3334 78.0405 85.3334 77.3333V72H80C79.2928 72 78.6145 71.719 78.1144 71.2189C77.6143 70.7188 77.3334 70.0405 77.3334 69.3333C77.3334 68.6261 77.6143 67.9478 78.1144 67.4477C78.6145 66.9476 79.2928 66.6666 80 66.6666H85.3334V61.3333Z" fill="#2C7575"/>
</g>
</svg>
