<svg width="128" height="128" viewBox="0 0 128 128" fill="none" xmlns="http://www.w3.org/2000/svg">
<g id="Frame">
<path id="Vector" d="M74.6666 26.6664C71.9999 29.3331 66.6506 28.8638 58.6666 22.2718M58.6666 22.2718C59.847 21.3047 61.0719 20.1918 62.3412 18.9331C74.6399 6.75176 91.3866 9.13576 99.2319 18.9331C102.571 23.1038 109.115 31.0984 105.712 50.6664M58.6666 22.2718C57.4861 21.3047 56.2612 20.1918 54.9919 18.9331C42.6932 6.75176 25.9465 9.13576 18.1012 18.9331C12.6825 25.7064 -1.18412 42.5598 32.7572 102.613C34.1652 105.098 36.9652 106.666 39.9785 106.666C44.7892 106.666 48.5492 102.826 48.7039 98.3464C48.9492 91.3971 50.2932 83.6531 54.0426 79.9998M85.3332 90.6664L88.9812 94.3144C89.7652 95.0984 90.1599 95.4931 90.6345 95.4664C91.1145 95.4398 91.4612 95.0078 92.1545 94.1384L101.333 82.6664M69.3332 82.4211V84.4798C69.3332 90.8904 69.3332 94.0958 70.1226 97.0291C71.1088 100.667 72.9647 104.011 75.5306 106.773C77.6106 109.024 80.3626 110.773 85.8612 114.277C88.3199 115.845 89.5519 116.629 90.8639 116.997C92.4799 117.445 94.1919 117.445 95.8079 116.997C97.1146 116.629 98.3465 115.845 100.805 114.277C106.304 110.773 109.056 109.024 111.136 106.773C113.702 104.011 115.558 100.667 116.544 97.0291C117.333 94.0958 117.333 90.8958 117.333 84.4798V82.4211C117.333 78.4318 117.333 76.4371 116.576 74.7518C116.101 73.7115 115.433 72.7705 114.608 71.9784C113.259 70.6984 111.344 69.9944 107.515 68.5918L99.6532 65.7118C96.5279 64.5704 94.9652 63.9998 93.3332 63.9998C91.7012 63.9998 90.1386 64.5704 87.0132 65.7171L79.1519 68.5971C75.3225 69.9944 73.4079 70.6931 72.0585 71.9784C71.2316 72.77 70.562 73.711 70.0852 74.7518C69.3332 76.4371 69.3332 78.4318 69.3332 82.4211Z" stroke="#2C7575" stroke-width="8" stroke-linecap="round" stroke-linejoin="round"/>
</g>
</svg>
